<?xml version="1.0" encoding="UTF-8" standalone="no"?>
<!DOCTYPE svg PUBLIC "-//W3C//DTD SVG 1.1//EN" "http://www.w3.org/Graphics/SVG/1.1/DTD/svg11.dtd">
<svg
  width="1100"
  height="700"
  viewBox="0 0 1173 785"
  version="1.1"
  xmlns="http://www.w3.org/2000/svg"
  xmlns:xlink="http://www.w3.org/1999/xlink"
  xml:space="preserve"
  xmlns:serif="http://www.serif.com/"
  style="fill-rule:evenodd;clip-rule:evenodd;stroke-linejoin:round;stroke-miterlimit:2;"
>
  <g transform="matrix(1,5.55112e-17,5.55112e-17,1,28,24.3479)">
    <text
      x="5.058px"
      y="135.512px"
      style="font-family:'Hasklig-Bold', 'Hasklig', monospace;font-weight:700;font-size:40px;fill:rgb(211,211,211);"
    >
      Virtual
    </text>
    <text
      x="53.058px"
      y="175.512px"
      style="font-family:'Hasklig-Bold', 'Hasklig', monospace;font-weight:700;font-size:40px;fill:rgb(211,211,211);"
    >
      DOM
    </text>
  </g>
  <g transform="matrix(1,5.55112e-17,5.55112e-17,1,623.939,266.407)">
    <text
      x="-26.142px"
      y="135.512px"
      style="font-family:'Hasklig-Bold', 'Hasklig', monospace;font-weight:700;font-size:32px;fill:rgb(211,211,211);"
    >
      Compute Diff
    </text>
  </g>
  <g transform="matrix(1,5.55112e-17,5.55112e-17,1,968.56,268.295)">
    <text
      x="2.658px"
      y="135.512px"
      style="font-family:'Hasklig-Bold', 'Hasklig', monospace;font-weight:700;font-size:32px;fill:rgb(211,211,211);"
    >
      Re-render
    </text>
  </g>
  <g transform="matrix(0.392366,0,5.55112e-17,0.425378,372.646,226.46)">
    <path
      d="M271.784,400.25L271.784,381.75L450.757,381.75L450.757,354L513.242,391L450.757,428L450.757,400.25L271.784,400.25Z"
      style="fill:rgb(211,211,211);"
    />
  </g>
  <g transform="matrix(0.392366,0,5.55112e-17,0.425378,746.579,226.46)">
    <path
      d="M271.784,400.25L271.784,381.75L450.757,381.75L450.757,354L513.242,391L450.757,428L450.757,400.25L271.784,400.25Z"
      style="fill:rgb(211,211,211);"
    />
  </g>
  <g transform="matrix(1,5.55112e-17,5.55112e-17,1,251.222,265.111)">
    <text
      x="-26.142px"
      y="135.512px"
      style="font-family:'Hasklig-Bold', 'Hasklig', monospace;font-weight:700;font-size:32px;fill:rgb(211,211,211);"
    >
      State Change
    </text>
  </g>
  <g transform="matrix(1,5.55112e-17,5.55112e-17,1,28,474.348)">
    <text
      x="5.058px"
      y="135.512px"
      style="font-family:'Hasklig-Bold', 'Hasklig', monospace;font-weight:700;font-size:40px;fill:rgb(211,211,211);"
    >
      Browser
    </text>
    <text
      x="53.058px"
      y="175.512px"
      style="font-family:'Hasklig-Bold', 'Hasklig', monospace;font-weight:700;font-size:40px;fill:rgb(211,211,211);"
    >
      DOM
    </text>
  </g>
  <g transform="matrix(1,0,0,1,529,0)">
    <circle
      cx="77"
      cy="262"
      r="26"
      style="fill:rgb(178,213,235);fill-opacity:0.35;"
    />
  </g>
  <g transform="matrix(1,0,0,1,625,0)">
    <circle
      cx="77"
      cy="262"
      r="26"
      style="fill:rgb(178,213,235);fill-opacity:0.35;"
    />
  </g>
  <g transform="matrix(1,0,0,1,719,0)">
    <circle
      cx="77"
      cy="262"
      r="26"
      style="fill:rgb(193,39,48);fill-opacity:0.35;"
    />
  </g>
  <g transform="matrix(1,0,0,1,576,-97)">
    <circle
      cx="77"
      cy="262"
      r="26"
      style="fill:rgb(178,213,235);fill-opacity:0.35;"
    />
  </g>
  <g transform="matrix(1,0,0,1,647,-194)">
    <circle
      cx="77"
      cy="262"
      r="26"
      style="fill:rgb(178,213,235);fill-opacity:0.35;"
    />
  </g>
  <g transform="matrix(1,0,0,1,719,-97)">
    <circle
      cx="77"
      cy="262"
      r="26"
      style="fill:rgb(193,39,48);fill-opacity:0.35;"
    />
  </g>
  <path
    d="M706.029,89.194C703.044,86.788 700.551,83.786 698.838,80.289C692.352,67.045 698.503,49.005 712.17,42.618C715.913,40.87 720.03,39.987 724.181,40.001C736.987,40.122 749.05,49.936 751.499,62.704C753.326,72.233 749.514,82.458 742.379,88.966L781.407,141.127C782.29,140.571 783.212,140.066 784.17,139.618C787.913,137.87 792.03,136.988 796.181,137.001C808.987,137.122 821.05,146.936 823.499,159.704C825.89,172.173 818.625,185.832 806.896,190.797C804.282,191.904 801.516,192.537 798.712,192.74L798.712,234.152C811.275,235.535 822.451,246.147 823.837,258.965C825.12,270.832 817.967,283.11 806.896,287.797C793.902,293.298 777.12,287.122 770.838,274.289C764.35,261.034 770.463,243.024 784.17,236.618C786.866,235.359 789.755,234.549 792.712,234.199L792.712,192.531C783.591,191.257 774.957,185.704 770.838,177.289C765.682,166.757 768.484,153.221 776.73,144.891L737.528,92.498C736.679,92.979 735.801,93.414 734.896,93.797C727.307,97.01 718.41,96.233 711.074,92.467L671.978,144.72C676.263,148.683 679.385,153.897 680.499,159.704C682.554,170.42 677.478,182.015 668.564,188.215L691.652,235.979C694.986,234.655 698.571,233.989 702.181,234.001C714.961,234.121 726.964,243.919 729.465,256.533C731.947,269.047 724.669,282.815 712.896,287.797C699.901,293.297 683.123,287.122 676.838,274.289C670.983,262.334 675.428,246.5 686.363,238.824L663.271,191.052C656.849,193.564 649.574,193.294 643.123,190.832L620.252,238.147C626.916,242.216 632.008,248.929 633.499,256.704C635.89,269.173 628.626,282.832 616.896,287.797C603.901,293.298 587.123,287.121 580.838,274.289C574.352,261.046 580.503,243.005 594.171,236.618C597.913,234.87 602.03,233.988 606.181,234.001C609.143,234.029 612.066,234.577 614.838,235.562L637.756,188.149C633.565,185.5 630.051,181.807 627.838,177.289C621.352,164.046 627.502,146.004 641.171,139.618C644.913,137.87 649.03,136.988 653.181,137.001C658.133,137.048 662.972,138.55 667.187,141.108L706.029,89.194ZM605.845,238.001C594.883,238.104 584.6,246.51 582.458,257.311C580.334,268.022 586.57,279.841 596.663,284.114C607.798,288.827 622.179,283.535 627.569,272.53C634.468,258.444 624.171,238.398 606.465,238.004C606.258,238.001 606.052,238 605.845,238.001ZM701.845,238.001C690.936,238.104 680.693,246.403 678.488,257.164C676.281,267.935 682.532,279.826 692.663,284.114C703.843,288.845 718.29,283.483 723.633,272.399C730.438,258.283 719.906,238.392 702.465,238.004C702.258,238.001 702.052,238 701.845,238.001ZM795.845,238.001C784.936,238.104 774.693,246.403 772.488,257.164C770.282,267.932 776.532,279.826 786.663,284.114C797.843,288.845 812.29,283.483 817.633,272.399C824.438,258.283 813.906,238.392 796.465,238.004C796.258,238.001 796.051,238 795.845,238.001ZM652.845,141C641.889,141.105 631.607,149.479 629.458,160.311C627.334,171.022 633.57,182.842 643.663,187.114C654.799,191.827 669.181,186.534 674.569,175.53C681.471,161.434 671.17,141.398 653.465,141.004C653.258,141.001 653.052,141 652.845,141ZM795.845,141C784.936,141.104 774.693,149.403 772.488,160.164C770.282,170.932 776.533,182.827 786.663,187.114C797.8,191.826 812.182,186.535 817.569,175.53C824.496,161.379 813.906,141.392 796.465,141.004C796.258,141.001 796.052,141 795.845,141ZM723.845,44.001C712.919,44.104 702.693,52.403 700.488,63.164C698.282,73.932 704.533,85.826 714.663,90.114C725.843,94.845 740.289,89.483 745.633,78.399C752.463,64.232 741.906,44.392 724.465,44.004C724.258,44.001 724.052,44 723.845,44.001Z"
    style="fill:rgb(211,211,211);fill-opacity:0.35;"
  />
  <g transform="matrix(1,0,0,1,861,0)">
    <circle cx="77" cy="262" r="26" style="fill:rgb(178,213,235);" />
  </g>
  <g transform="matrix(1,0,0,1,957,0)">
    <circle cx="77" cy="262" r="26" style="fill:rgb(178,213,235);" />
  </g>
  <g transform="matrix(1,0,0,1,1051,0)">
    <circle cx="77" cy="262" r="26" style="fill:rgb(193,39,48);" />
  </g>
  <g transform="matrix(1,0,0,1,908,-97)">
    <circle cx="77" cy="262" r="26" style="fill:rgb(178,213,235);" />
  </g>
  <g transform="matrix(1,0,0,1,979,-194)">
    <circle cx="77" cy="262" r="26" style="fill:rgb(178,213,235);" />
  </g>
  <g transform="matrix(1,0,0,1,1051,-97)">
    <circle cx="77" cy="262" r="26" style="fill:rgb(193,39,48);" />
  </g>
  <g transform="matrix(1,0,0,1,332,0)">
    <path
      d="M706.029,89.194C703.044,86.788 700.551,83.786 698.838,80.289C692.352,67.045 698.503,49.005 712.17,42.618C715.913,40.87 720.03,39.987 724.181,40.001C736.987,40.122 749.05,49.936 751.499,62.704C753.326,72.233 749.514,82.458 742.379,88.966L781.407,141.127C782.29,140.571 783.212,140.066 784.17,139.618C787.913,137.87 792.03,136.988 796.181,137.001C808.987,137.122 821.05,146.936 823.499,159.704C825.89,172.173 818.625,185.832 806.896,190.797C804.282,191.904 801.516,192.537 798.712,192.74L798.712,234.152C811.275,235.535 822.451,246.147 823.837,258.965C825.12,270.832 817.967,283.11 806.896,287.797C793.902,293.298 777.12,287.122 770.838,274.289C764.35,261.034 770.463,243.024 784.17,236.618C786.866,235.359 789.755,234.549 792.712,234.199L792.712,192.531C783.591,191.257 774.957,185.704 770.838,177.289C765.682,166.757 768.484,153.221 776.73,144.891L737.528,92.498C736.679,92.979 735.801,93.414 734.896,93.797C727.307,97.01 718.41,96.233 711.074,92.467L671.978,144.72C676.263,148.683 679.385,153.897 680.499,159.704C682.554,170.42 677.478,182.015 668.564,188.215L691.652,235.979C694.986,234.655 698.571,233.989 702.181,234.001C714.961,234.121 726.964,243.919 729.465,256.533C731.947,269.047 724.669,282.815 712.896,287.797C699.901,293.297 683.123,287.122 676.838,274.289C670.983,262.334 675.428,246.5 686.363,238.824L663.271,191.052C656.849,193.564 649.574,193.294 643.123,190.832L620.252,238.147C626.916,242.216 632.008,248.929 633.499,256.704C635.89,269.173 628.626,282.832 616.896,287.797C603.901,293.298 587.123,287.121 580.838,274.289C574.352,261.046 580.503,243.005 594.171,236.618C597.913,234.87 602.03,233.988 606.181,234.001C609.143,234.029 612.066,234.577 614.838,235.562L637.756,188.149C633.565,185.5 630.051,181.807 627.838,177.289C621.352,164.046 627.502,146.004 641.171,139.618C644.913,137.87 649.03,136.988 653.181,137.001C658.133,137.048 662.972,138.55 667.187,141.108L706.029,89.194ZM605.845,238.001C594.883,238.104 584.6,246.51 582.458,257.311C580.334,268.022 586.57,279.841 596.663,284.114C607.798,288.827 622.179,283.535 627.569,272.53C634.468,258.444 624.171,238.398 606.465,238.004C606.258,238.001 606.052,238 605.845,238.001ZM701.845,238.001C690.936,238.104 680.693,246.403 678.488,257.164C676.281,267.935 682.532,279.826 692.663,284.114C703.843,288.845 718.29,283.483 723.633,272.399C730.438,258.283 719.906,238.392 702.465,238.004C702.258,238.001 702.052,238 701.845,238.001ZM795.845,238.001C784.936,238.104 774.693,246.403 772.488,257.164C770.282,267.932 776.532,279.826 786.663,284.114C797.843,288.845 812.29,283.483 817.633,272.399C824.438,258.283 813.906,238.392 796.465,238.004C796.258,238.001 796.051,238 795.845,238.001ZM652.845,141C641.889,141.105 631.607,149.479 629.458,160.311C627.334,171.022 633.57,182.842 643.663,187.114C654.799,191.827 669.181,186.534 674.569,175.53C681.471,161.434 671.17,141.398 653.465,141.004C653.258,141.001 653.052,141 652.845,141ZM795.845,141C784.936,141.104 774.693,149.403 772.488,160.164C770.282,170.932 776.533,182.827 786.663,187.114C797.8,191.826 812.182,186.535 817.569,175.53C824.496,161.379 813.906,141.392 796.465,141.004C796.258,141.001 796.052,141 795.845,141ZM723.845,44.001C712.919,44.104 702.693,52.403 700.488,63.164C698.282,73.932 704.533,85.826 714.663,90.114C725.843,94.845 740.289,89.483 745.633,78.399C752.463,64.232 741.906,44.392 724.465,44.004C724.258,44.001 724.052,44 723.845,44.001Z"
      style="fill:rgb(211,211,211);"
    />
  </g>
  <g transform="matrix(1,0,0,1,196,0)">
    <circle
      cx="77"
      cy="262"
      r="26"
      style="fill:rgb(178,213,235);fill-opacity:0.35;"
    />
  </g>
  <g transform="matrix(1,0,0,1,292,0)">
    <circle
      cx="77"
      cy="262"
      r="26"
      style="fill:rgb(178,213,235);fill-opacity:0.35;"
    />
  </g>
  <g transform="matrix(1,0,0,1,386,0)">
    <circle
      cx="77"
      cy="262"
      r="26"
      style="fill:rgb(178,213,235);fill-opacity:0.35;"
    />
  </g>
  <g transform="matrix(1,0,0,1,243,-97)">
    <circle
      cx="77"
      cy="262"
      r="26"
      style="fill:rgb(178,213,235);fill-opacity:0.35;"
    />
  </g>
  <g transform="matrix(1,0,0,1,314,-194)">
    <circle
      cx="77"
      cy="262"
      r="26"
      style="fill:rgb(178,213,235);fill-opacity:0.35;"
    />
  </g>
  <g transform="matrix(1,0,0,1,386,-97)">
    <circle
      cx="77"
      cy="262"
      r="26"
      style="fill:rgb(193,39,48);fill-opacity:0.35;"
    />
  </g>
  <g transform="matrix(1,0,0,1,-333,0)">
    <path
      d="M706.029,89.194C703.044,86.788 700.551,83.786 698.838,80.289C692.352,67.045 698.503,49.005 712.17,42.618C715.913,40.87 720.03,39.987 724.181,40.001C736.987,40.122 749.05,49.936 751.499,62.704C753.326,72.233 749.514,82.458 742.379,88.966L781.407,141.127C782.29,140.571 783.212,140.066 784.17,139.618C787.913,137.87 792.03,136.988 796.181,137.001C808.987,137.122 821.05,146.936 823.499,159.704C825.89,172.173 818.625,185.832 806.896,190.797C804.282,191.904 801.516,192.537 798.712,192.74L798.712,234.152C811.275,235.535 822.451,246.147 823.837,258.965C825.12,270.832 817.967,283.11 806.896,287.797C793.902,293.298 777.12,287.122 770.838,274.289C764.35,261.034 770.463,243.024 784.17,236.618C786.866,235.359 789.755,234.549 792.712,234.199L792.712,192.531C783.591,191.257 774.957,185.704 770.838,177.289C765.682,166.757 768.484,153.221 776.73,144.891L737.528,92.498C736.679,92.979 735.801,93.414 734.896,93.797C727.307,97.01 718.41,96.233 711.074,92.467L671.978,144.72C676.263,148.683 679.385,153.897 680.499,159.704C682.554,170.42 677.478,182.015 668.564,188.215L691.652,235.979C694.986,234.655 698.571,233.989 702.181,234.001C714.961,234.121 726.964,243.919 729.465,256.533C731.947,269.047 724.669,282.815 712.896,287.797C699.901,293.297 683.123,287.122 676.838,274.289C670.983,262.334 675.428,246.5 686.363,238.824L663.271,191.052C656.849,193.564 649.574,193.294 643.123,190.832L620.252,238.147C626.916,242.216 632.008,248.929 633.499,256.704C635.89,269.173 628.626,282.832 616.896,287.797C603.901,293.298 587.123,287.121 580.838,274.289C574.352,261.046 580.503,243.005 594.171,236.618C597.913,234.87 602.03,233.988 606.181,234.001C609.143,234.029 612.066,234.577 614.838,235.562L637.756,188.149C633.565,185.5 630.051,181.807 627.838,177.289C621.352,164.046 627.502,146.004 641.171,139.618C644.913,137.87 649.03,136.988 653.181,137.001C658.133,137.048 662.972,138.55 667.187,141.108L706.029,89.194ZM605.845,238.001C594.883,238.104 584.6,246.51 582.458,257.311C580.334,268.022 586.57,279.841 596.663,284.114C607.798,288.827 622.179,283.535 627.569,272.53C634.468,258.444 624.171,238.398 606.465,238.004C606.258,238.001 606.052,238 605.845,238.001ZM701.845,238.001C690.936,238.104 680.693,246.403 678.488,257.164C676.281,267.935 682.532,279.826 692.663,284.114C703.843,288.845 718.29,283.483 723.633,272.399C730.438,258.283 719.906,238.392 702.465,238.004C702.258,238.001 702.052,238 701.845,238.001ZM795.845,238.001C784.936,238.104 774.693,246.403 772.488,257.164C770.282,267.932 776.532,279.826 786.663,284.114C797.843,288.845 812.29,283.483 817.633,272.399C824.438,258.283 813.906,238.392 796.465,238.004C796.258,238.001 796.051,238 795.845,238.001ZM652.845,141C641.889,141.105 631.607,149.479 629.458,160.311C627.334,171.022 633.57,182.842 643.663,187.114C654.799,191.827 669.181,186.534 674.569,175.53C681.471,161.434 671.17,141.398 653.465,141.004C653.258,141.001 653.052,141 652.845,141ZM795.845,141C784.936,141.104 774.693,149.403 772.488,160.164C770.282,170.932 776.533,182.827 786.663,187.114C797.8,191.826 812.182,186.535 817.569,175.53C824.496,161.379 813.906,141.392 796.465,141.004C796.258,141.001 796.052,141 795.845,141ZM723.845,44.001C712.919,44.104 702.693,52.403 700.488,63.164C698.282,73.932 704.533,85.826 714.663,90.114C725.843,94.845 740.289,89.483 745.633,78.399C752.463,64.232 741.906,44.392 724.465,44.004C724.258,44.001 724.052,44 723.845,44.001Z"
      style="fill:rgb(211,211,211);fill-opacity:0.35;"
    />
  </g>
  <g transform="matrix(1,0,0,1,529,451)">
    <circle
      cx="77"
      cy="262"
      r="26"
      style="fill:rgb(178,213,235);fill-opacity:0.35;"
    />
  </g>
  <g transform="matrix(1,0,0,1,625,451)">
    <circle
      cx="77"
      cy="262"
      r="26"
      style="fill:rgb(178,213,235);fill-opacity:0.35;"
    />
  </g>
  <g transform="matrix(1,0,0,1,719,451)">
    <circle
      cx="77"
      cy="262"
      r="26"
      style="fill:rgb(178,213,235);fill-opacity:0.35;"
    />
  </g>
  <g transform="matrix(1,0,0,1,576,354)">
    <circle
      cx="77"
      cy="262"
      r="26"
      style="fill:rgb(178,213,235);fill-opacity:0.35;"
    />
  </g>
  <g transform="matrix(1,0,0,1,647,257)">
    <circle
      cx="77"
      cy="262"
      r="26"
      style="fill:rgb(178,213,235);fill-opacity:0.35;"
    />
  </g>
  <g transform="matrix(1,0,0,1,719,354)">
    <circle
      cx="77"
      cy="262"
      r="26"
      style="fill:rgb(178,213,235);fill-opacity:0.35;"
    />
  </g>
  <g transform="matrix(1,0,0,1,0,451)">
    <path
      d="M706.029,89.194C703.044,86.788 700.551,83.786 698.838,80.289C692.352,67.045 698.503,49.005 712.17,42.618C715.913,40.87 720.03,39.987 724.181,40.001C736.987,40.122 749.05,49.936 751.499,62.704C753.326,72.233 749.514,82.458 742.379,88.966L781.407,141.127C782.29,140.571 783.212,140.066 784.17,139.618C787.913,137.87 792.03,136.988 796.181,137.001C808.987,137.122 821.05,146.936 823.499,159.704C825.89,172.173 818.625,185.832 806.896,190.797C804.282,191.904 801.516,192.537 798.712,192.74L798.712,234.152C811.275,235.535 822.451,246.147 823.837,258.965C825.12,270.832 817.967,283.11 806.896,287.797C793.902,293.298 777.12,287.122 770.838,274.289C764.35,261.034 770.463,243.024 784.17,236.618C786.866,235.359 789.755,234.549 792.712,234.199L792.712,192.531C783.591,191.257 774.957,185.704 770.838,177.289C765.682,166.757 768.484,153.221 776.73,144.891L737.528,92.498C736.679,92.979 735.801,93.414 734.896,93.797C727.307,97.01 718.41,96.233 711.074,92.467L671.978,144.72C676.263,148.683 679.385,153.897 680.499,159.704C682.554,170.42 677.478,182.015 668.564,188.215L691.652,235.979C694.986,234.655 698.571,233.989 702.181,234.001C714.961,234.121 726.964,243.919 729.465,256.533C731.947,269.047 724.669,282.815 712.896,287.797C699.901,293.297 683.123,287.122 676.838,274.289C670.983,262.334 675.428,246.5 686.363,238.824L663.271,191.052C656.849,193.564 649.574,193.294 643.123,190.832L620.252,238.147C626.916,242.216 632.008,248.929 633.499,256.704C635.89,269.173 628.626,282.832 616.896,287.797C603.901,293.298 587.123,287.121 580.838,274.289C574.352,261.046 580.503,243.005 594.171,236.618C597.913,234.87 602.03,233.988 606.181,234.001C609.143,234.029 612.066,234.577 614.838,235.562L637.756,188.149C633.565,185.5 630.051,181.807 627.838,177.289C621.352,164.046 627.502,146.004 641.171,139.618C644.913,137.87 649.03,136.988 653.181,137.001C658.133,137.048 662.972,138.55 667.187,141.108L706.029,89.194ZM605.845,238.001C594.883,238.104 584.6,246.51 582.458,257.311C580.334,268.022 586.57,279.841 596.663,284.114C607.798,288.827 622.179,283.535 627.569,272.53C634.468,258.444 624.171,238.398 606.465,238.004C606.258,238.001 606.052,238 605.845,238.001ZM701.845,238.001C690.936,238.104 680.693,246.403 678.488,257.164C676.281,267.935 682.532,279.826 692.663,284.114C703.843,288.845 718.29,283.483 723.633,272.399C730.438,258.283 719.906,238.392 702.465,238.004C702.258,238.001 702.052,238 701.845,238.001ZM795.845,238.001C784.936,238.104 774.693,246.403 772.488,257.164C770.282,267.932 776.532,279.826 786.663,284.114C797.843,288.845 812.29,283.483 817.633,272.399C824.438,258.283 813.906,238.392 796.465,238.004C796.258,238.001 796.051,238 795.845,238.001ZM652.845,141C641.889,141.105 631.607,149.479 629.458,160.311C627.334,171.022 633.57,182.842 643.663,187.114C654.799,191.827 669.181,186.534 674.569,175.53C681.471,161.434 671.17,141.398 653.465,141.004C653.258,141.001 653.052,141 652.845,141ZM795.845,141C784.936,141.104 774.693,149.403 772.488,160.164C770.282,170.932 776.533,182.827 786.663,187.114C797.8,191.826 812.182,186.535 817.569,175.53C824.496,161.379 813.906,141.392 796.465,141.004C796.258,141.001 796.052,141 795.845,141ZM723.845,44.001C712.919,44.104 702.693,52.403 700.488,63.164C698.282,73.932 704.533,85.826 714.663,90.114C725.843,94.845 740.289,89.483 745.633,78.399C752.463,64.232 741.906,44.392 724.465,44.004C724.258,44.001 724.052,44 723.845,44.001Z"
      style="fill:rgb(211,211,211);fill-opacity:0.35;"
    />
  </g>
  <g transform="matrix(1,0,0,1,861,451)">
    <circle cx="77" cy="262" r="26" style="fill:rgb(178,213,235);" />
  </g>
  <g transform="matrix(1,0,0,1,957,451)">
    <circle cx="77" cy="262" r="26" style="fill:rgb(178,213,235);" />
  </g>
  <g transform="matrix(1,0,0,1,1051,451)">
    <circle cx="77" cy="262" r="26" style="fill:rgb(193,39,48);" />
  </g>
  <g transform="matrix(1,0,0,1,908,354)">
    <circle cx="77" cy="262" r="26" style="fill:rgb(178,213,235);" />
  </g>
  <g transform="matrix(1,0,0,1,979,257)">
    <circle cx="77" cy="262" r="26" style="fill:rgb(178,213,235);" />
  </g>
  <g transform="matrix(1,0,0,1,1051,354)">
    <circle cx="77" cy="262" r="26" style="fill:rgb(193,39,48);" />
  </g>
  <g transform="matrix(1,0,0,1,332,451)">
    <path
      d="M706.029,89.194C703.044,86.788 700.551,83.786 698.838,80.289C692.352,67.045 698.503,49.005 712.17,42.618C715.913,40.87 720.03,39.987 724.181,40.001C736.987,40.122 749.05,49.936 751.499,62.704C753.326,72.233 749.514,82.458 742.379,88.966L781.407,141.127C782.29,140.571 783.212,140.066 784.17,139.618C787.913,137.87 792.03,136.988 796.181,137.001C808.987,137.122 821.05,146.936 823.499,159.704C825.89,172.173 818.625,185.832 806.896,190.797C804.282,191.904 801.516,192.537 798.712,192.74L798.712,234.152C811.275,235.535 822.451,246.147 823.837,258.965C825.12,270.832 817.967,283.11 806.896,287.797C793.902,293.298 777.12,287.122 770.838,274.289C764.35,261.034 770.463,243.024 784.17,236.618C786.866,235.359 789.755,234.549 792.712,234.199L792.712,192.531C783.591,191.257 774.957,185.704 770.838,177.289C765.682,166.757 768.484,153.221 776.73,144.891L737.528,92.498C736.679,92.979 735.801,93.414 734.896,93.797C727.307,97.01 718.41,96.233 711.074,92.467L671.978,144.72C676.263,148.683 679.385,153.897 680.499,159.704C682.554,170.42 677.478,182.015 668.564,188.215L691.652,235.979C694.986,234.655 698.571,233.989 702.181,234.001C714.961,234.121 726.964,243.919 729.465,256.533C731.947,269.047 724.669,282.815 712.896,287.797C699.901,293.297 683.123,287.122 676.838,274.289C670.983,262.334 675.428,246.5 686.363,238.824L663.271,191.052C656.849,193.564 649.574,193.294 643.123,190.832L620.252,238.147C626.916,242.216 632.008,248.929 633.499,256.704C635.89,269.173 628.626,282.832 616.896,287.797C603.901,293.298 587.123,287.121 580.838,274.289C574.352,261.046 580.503,243.005 594.171,236.618C597.913,234.87 602.03,233.988 606.181,234.001C609.143,234.029 612.066,234.577 614.838,235.562L637.756,188.149C633.565,185.5 630.051,181.807 627.838,177.289C621.352,164.046 627.502,146.004 641.171,139.618C644.913,137.87 649.03,136.988 653.181,137.001C658.133,137.048 662.972,138.55 667.187,141.108L706.029,89.194ZM605.845,238.001C594.883,238.104 584.6,246.51 582.458,257.311C580.334,268.022 586.57,279.841 596.663,284.114C607.798,288.827 622.179,283.535 627.569,272.53C634.468,258.444 624.171,238.398 606.465,238.004C606.258,238.001 606.052,238 605.845,238.001ZM701.845,238.001C690.936,238.104 680.693,246.403 678.488,257.164C676.281,267.935 682.532,279.826 692.663,284.114C703.843,288.845 718.29,283.483 723.633,272.399C730.438,258.283 719.906,238.392 702.465,238.004C702.258,238.001 702.052,238 701.845,238.001ZM795.845,238.001C784.936,238.104 774.693,246.403 772.488,257.164C770.282,267.932 776.532,279.826 786.663,284.114C797.843,288.845 812.29,283.483 817.633,272.399C824.438,258.283 813.906,238.392 796.465,238.004C796.258,238.001 796.051,238 795.845,238.001ZM652.845,141C641.889,141.105 631.607,149.479 629.458,160.311C627.334,171.022 633.57,182.842 643.663,187.114C654.799,191.827 669.181,186.534 674.569,175.53C681.471,161.434 671.17,141.398 653.465,141.004C653.258,141.001 653.052,141 652.845,141ZM795.845,141C784.936,141.104 774.693,149.403 772.488,160.164C770.282,170.932 776.533,182.827 786.663,187.114C797.8,191.826 812.182,186.535 817.569,175.53C824.496,161.379 813.906,141.392 796.465,141.004C796.258,141.001 796.052,141 795.845,141ZM723.845,44.001C712.919,44.104 702.693,52.403 700.488,63.164C698.282,73.932 704.533,85.826 714.663,90.114C725.843,94.845 740.289,89.483 745.633,78.399C752.463,64.232 741.906,44.392 724.465,44.004C724.258,44.001 724.052,44 723.845,44.001Z"
      style="fill:rgb(211,211,211);"
    />
  </g>
  <g transform="matrix(1,0,0,1,196,451)">
    <circle
      cx="77"
      cy="262"
      r="26"
      style="fill:rgb(178,213,235);fill-opacity:0.35;"
    />
  </g>
  <g transform="matrix(1,0,0,1,292,451)">
    <circle
      cx="77"
      cy="262"
      r="26"
      style="fill:rgb(178,213,235);fill-opacity:0.35;"
    />
  </g>
  <g transform="matrix(1,0,0,1,386,451)">
    <circle
      cx="77"
      cy="262"
      r="26"
      style="fill:rgb(178,213,235);fill-opacity:0.35;"
    />
  </g>
  <g transform="matrix(1,0,0,1,243,354)">
    <circle
      cx="77"
      cy="262"
      r="26"
      style="fill:rgb(178,213,235);fill-opacity:0.35;"
    />
  </g>
  <g transform="matrix(1,0,0,1,314,257)">
    <circle
      cx="77"
      cy="262"
      r="26"
      style="fill:rgb(178,213,235);fill-opacity:0.35;"
    />
  </g>
  <g transform="matrix(1,0,0,1,386,354)">
    <circle
      cx="77"
      cy="262"
      r="26"
      style="fill:rgb(178,213,235);fill-opacity:0.35;"
    />
  </g>
  <g transform="matrix(1,0,0,1,-333,451)">
    <path
      d="M706.029,89.194C703.044,86.788 700.551,83.786 698.838,80.289C692.352,67.045 698.503,49.005 712.17,42.618C715.913,40.87 720.03,39.987 724.181,40.001C736.987,40.122 749.05,49.936 751.499,62.704C753.326,72.233 749.514,82.458 742.379,88.966L781.407,141.127C782.29,140.571 783.212,140.066 784.17,139.618C787.913,137.87 792.03,136.988 796.181,137.001C808.987,137.122 821.05,146.936 823.499,159.704C825.89,172.173 818.625,185.832 806.896,190.797C804.282,191.904 801.516,192.537 798.712,192.74L798.712,234.152C811.275,235.535 822.451,246.147 823.837,258.965C825.12,270.832 817.967,283.11 806.896,287.797C793.902,293.298 777.12,287.122 770.838,274.289C764.35,261.034 770.463,243.024 784.17,236.618C786.866,235.359 789.755,234.549 792.712,234.199L792.712,192.531C783.591,191.257 774.957,185.704 770.838,177.289C765.682,166.757 768.484,153.221 776.73,144.891L737.528,92.498C736.679,92.979 735.801,93.414 734.896,93.797C727.307,97.01 718.41,96.233 711.074,92.467L671.978,144.72C676.263,148.683 679.385,153.897 680.499,159.704C682.554,170.42 677.478,182.015 668.564,188.215L691.652,235.979C694.986,234.655 698.571,233.989 702.181,234.001C714.961,234.121 726.964,243.919 729.465,256.533C731.947,269.047 724.669,282.815 712.896,287.797C699.901,293.297 683.123,287.122 676.838,274.289C670.983,262.334 675.428,246.5 686.363,238.824L663.271,191.052C656.849,193.564 649.574,193.294 643.123,190.832L620.252,238.147C626.916,242.216 632.008,248.929 633.499,256.704C635.89,269.173 628.626,282.832 616.896,287.797C603.901,293.298 587.123,287.121 580.838,274.289C574.352,261.046 580.503,243.005 594.171,236.618C597.913,234.87 602.03,233.988 606.181,234.001C609.143,234.029 612.066,234.577 614.838,235.562L637.756,188.149C633.565,185.5 630.051,181.807 627.838,177.289C621.352,164.046 627.502,146.004 641.171,139.618C644.913,137.87 649.03,136.988 653.181,137.001C658.133,137.048 662.972,138.55 667.187,141.108L706.029,89.194ZM605.845,238.001C594.883,238.104 584.6,246.51 582.458,257.311C580.334,268.022 586.57,279.841 596.663,284.114C607.798,288.827 622.179,283.535 627.569,272.53C634.468,258.444 624.171,238.398 606.465,238.004C606.258,238.001 606.052,238 605.845,238.001ZM701.845,238.001C690.936,238.104 680.693,246.403 678.488,257.164C676.281,267.935 682.532,279.826 692.663,284.114C703.843,288.845 718.29,283.483 723.633,272.399C730.438,258.283 719.906,238.392 702.465,238.004C702.258,238.001 702.052,238 701.845,238.001ZM795.845,238.001C784.936,238.104 774.693,246.403 772.488,257.164C770.282,267.932 776.532,279.826 786.663,284.114C797.843,288.845 812.29,283.483 817.633,272.399C824.438,258.283 813.906,238.392 796.465,238.004C796.258,238.001 796.051,238 795.845,238.001ZM652.845,141C641.889,141.105 631.607,149.479 629.458,160.311C627.334,171.022 633.57,182.842 643.663,187.114C654.799,191.827 669.181,186.534 674.569,175.53C681.471,161.434 671.17,141.398 653.465,141.004C653.258,141.001 653.052,141 652.845,141ZM795.845,141C784.936,141.104 774.693,149.403 772.488,160.164C770.282,170.932 776.533,182.827 786.663,187.114C797.8,191.826 812.182,186.535 817.569,175.53C824.496,161.379 813.906,141.392 796.465,141.004C796.258,141.001 796.052,141 795.845,141ZM723.845,44.001C712.919,44.104 702.693,52.403 700.488,63.164C698.282,73.932 704.533,85.826 714.663,90.114C725.843,94.845 740.289,89.483 745.633,78.399C752.463,64.232 741.906,44.392 724.465,44.004C724.258,44.001 724.052,44 723.845,44.001Z"
      style="fill:rgb(211,211,211);fill-opacity:0.35;"
    />
  </g>
  <g
    transform="matrix(-11.73,2.77112e-15,4.61396e-16,0.352941,4621.62,429.168)"
  >
    <rect
      x="294"
      y="51"
      width="100"
      height="17"
      style="fill:rgb(211,211,211);"
    />
  </g>
  <g
    transform="matrix(-11.73,2.77112e-15,4.61396e-16,0.352941,4621.62,313.168)"
  >
    <rect
      x="294"
      y="51"
      width="100"
      height="17"
      style="fill:rgb(211,211,211);"
    />
  </g>
</svg>
