<?xml version="1.0" encoding="UTF-8" standalone="no"?>
<!DOCTYPE svg PUBLIC "-//W3C//DTD SVG 1.1//EN" "http://www.w3.org/Graphics/SVG/1.1/DTD/svg11.dtd">
<svg width="100%" height="100%" viewBox="0 0 500 500" version="1.1" xmlns="http://www.w3.org/2000/svg" xmlns:xlink="http://www.w3.org/1999/xlink" xml:space="preserve" xmlns:serif="http://www.serif.com/" style="fill-rule:evenodd;clip-rule:evenodd;stroke-linejoin:round;stroke-miterlimit:2;">
    <g transform="matrix(0.140625,0,0,0.140625,218.5,15)">
        <path d="M325.4,289.2L224,390.6L122.6,289.2C54,295.3 0,352.2 0,422.4L0,464C0,490.5 21.5,512 48,512L400,512C426.5,512 448,490.5 448,464L448,422.4C448,352.2 394,295.3 325.4,289.2ZM32,192C59.3,192 83.8,180.5 101.2,162.3C116.3,216.2 165.2,256 224,256C294.7,256 352,198.7 352,128C352,57.3 294.7,0 224,0C173.6,0 130.4,29.4 109.5,71.8C92.1,47.8 64,32 32,32C32,65.4 49.1,94.8 75.1,112C49.1,129.2 32,158.6 32,192ZM176,96L272,96C289.7,96 304,110.3 304,128L144,128C144,110.3 158.3,96 176,96Z" style="fill:rgb(235,177,95);fill-rule:nonzero;"/>
    </g>
</svg>
