<?xml version="1.0" encoding="UTF-8" standalone="no"?>
<!DOCTYPE svg PUBLIC "-//W3C//DTD SVG 1.1//EN" "http://www.w3.org/Graphics/SVG/1.1/DTD/svg11.dtd">
<svg width="100%" height="100%" viewBox="0 0 500 300" version="1.1" xmlns="http://www.w3.org/2000/svg" xmlns:xlink="http://www.w3.org/1999/xlink" xml:space="preserve" xmlns:serif="http://www.serif.com/" style="fill-rule:evenodd;clip-rule:evenodd;">
    <g id="Calque-1" serif:id="Calque 1" transform="matrix(1,0,0,1,-118.491,-171.608)">
        <path id="path4212" d="M450.831,327.176L483.156,327.176L483.156,380.714L521.541,380.714" style="fill:none;stroke:white;stroke-width:1px;"/>
        <g id="Layer_1" transform="matrix(1.25,0,0,1.25,518.354,326.973)">
            <g id="g1182" transform="matrix(1,0,0,1,-12.8,0)">
                <path id="path1183" d="M36.049,41.004L35.376,41.004L27.454,41.004C27.288,40.717 27.029,40.49 26.719,40.364L26.719,31.675L21.844,31.675L21.844,40.364C21.533,40.49 21.275,40.717 21.109,41.004L12.515,41.004L12.515,45.879L20.956,45.879C21.123,46.525 21.708,47.004 22.407,47.004L26.157,47.004C26.855,47.004 27.441,46.525 27.608,45.879L36.049,45.879L36.049,41.004Z" style="fill-opacity:0.2;fill-rule:nonzero;"/>
                <path id="path1184" d="M35.861,40.816L35.188,40.816L27.266,40.816C27.1,40.529 26.841,40.302 26.531,40.176L26.531,31.487L21.656,31.487L21.656,40.176C21.345,40.302 21.087,40.529 20.921,40.816L12.327,40.816L12.327,45.691L20.768,45.691C20.935,46.337 21.52,46.816 22.219,46.816L25.969,46.816C26.667,46.816 27.253,46.337 27.42,45.691L35.861,45.691L35.861,40.816Z" style="fill-opacity:0.2;fill-rule:nonzero;"/>
                <path id="path1185" d="M35.674,40.629L35.001,40.629L27.079,40.629C26.913,40.342 26.654,40.115 26.344,39.989L26.344,31.3L21.469,31.3L21.469,39.989C21.158,40.115 20.9,40.342 20.734,40.629L12.14,40.629L12.14,45.504L20.581,45.504C20.748,46.15 21.333,46.629 22.032,46.629L25.782,46.629C26.48,46.629 27.066,46.15 27.233,45.504L35.674,45.504L35.674,40.629Z" style="fill-opacity:0.2;fill-rule:nonzero;"/>
                <path id="polygon1186" d="M35.486,45.316L35.486,40.441L34.813,40.441L11.952,40.441L11.952,45.316L35.486,45.316Z" style="fill:rgb(97,97,97);fill-rule:nonzero;"/>
                <rect id="rect1202" x="12.624" y="41.114" width="22.189" height="3.53" style="fill:url(#_Linear1);"/>
                <path id="polygon1203" d="M26.156,31.112L21.281,31.112L21.281,43.959L26.156,43.959L26.156,31.112Z" style="fill:rgb(97,97,97);fill-rule:nonzero;"/>
                <rect id="rect1219" x="21.953" y="31.479" width="3.531" height="12.112" style="fill:url(#_Linear2);"/>
                <path id="path1226" d="M27.094,44.941C27.094,45.77 26.422,46.441 25.594,46.441L21.844,46.441C21.016,46.441 20.344,45.77 20.344,44.941L20.344,41.191C20.344,40.363 21.016,39.691 21.844,39.691L25.594,39.691C26.422,39.691 27.094,40.363 27.094,41.191L27.094,44.941Z" style="fill:url(#_Linear3);fill-rule:nonzero;"/>
                <path id="path1233" d="M21.844,40.441C21.43,40.441 21.094,40.778 21.094,41.191L21.094,44.941C21.094,45.355 21.43,45.691 21.844,45.691L25.594,45.691C26.008,45.691 26.344,45.355 26.344,44.941L26.344,41.191C26.344,40.778 26.008,40.441 25.594,40.441L21.844,40.441Z" style="fill:url(#_Linear4);fill-rule:nonzero;"/>
                <path id="path1241" d="M21.844,41.004C21.74,41.004 21.656,41.089 21.656,41.192L21.656,44.942C21.656,45.046 21.74,45.13 21.844,45.13L25.594,45.13C25.698,45.13 25.782,45.046 25.782,44.942L25.782,41.192C25.782,41.089 25.698,41.004 25.594,41.004L21.844,41.004Z" style="fill:url(#_Linear5);fill-rule:nonzero;"/>
            </g>
            <path id="path1242" d="M33.9,-54.884L0.632,-33.085C0.622,-33.075 0.526,-33.014 0.526,-33.014C0.546,-33.027 0.407,-32.918 0.407,-32.918C0.358,-32.88 0.358,-32.89 0.318,-32.844L-0.121,-32.331C-0.162,-32.283 -0.149,-32.291 -0.18,-32.235L-0.182,-32.227C-0.177,-32.238 -0.289,-32.035 -0.289,-32.035C-0.294,-32.022 -0.334,-31.93 -0.334,-31.93C-0.337,-31.92 -0.416,-31.715 -0.416,-31.715L-0.449,-31.611C-0.454,-31.59 -0.502,-31.387 -0.502,-31.387L-0.525,-31.26L-0.545,-31.007C-0.545,-31.029 -0.55,-30.933 -0.55,-30.933L-0.55,26.915C-0.55,28.042 0.168,29.039 1.239,29.397L26.017,37.658C26.832,37.927 27.728,37.785 28.413,37.27L61.452,12.489C62.107,11.999 62.498,11.215 62.498,10.398L62.498,-47.417C62.498,-47.437 62.493,-47.506 62.49,-47.534C62.49,-47.559 62.478,-47.701 62.478,-47.704C62.478,-47.704 62.452,-47.869 62.452,-47.879C62.45,-47.882 62.437,-47.973 62.437,-47.973C62.43,-48.014 62.427,-48.011 62.414,-48.052C62.414,-48.052 62.358,-48.25 62.356,-48.25L62.303,-48.397C62.295,-48.415 62.219,-48.582 62.219,-48.582C62.216,-48.587 62.14,-48.732 62.14,-48.732C62.13,-48.75 62.031,-48.902 62.031,-48.902C62.031,-48.902 61.932,-49.039 61.93,-49.039L61.831,-49.158C61.818,-49.173 61.8,-49.189 61.787,-49.204L61.691,-49.305C61.681,-49.313 61.564,-49.415 61.564,-49.415C61.531,-49.442 61.419,-49.531 61.419,-49.531C61.404,-49.541 61.27,-49.63 61.27,-49.63C61.247,-49.643 61.087,-49.737 61.087,-49.737C61.062,-49.75 60.922,-49.813 60.922,-49.813C60.894,-49.823 60.752,-49.881 60.752,-49.881C60.754,-49.881 60.562,-49.94 60.562,-49.94C60.569,-49.937 60.43,-49.975 60.43,-49.975L35.885,-55.252C35.195,-55.399 34.489,-55.267 33.9,-54.884L33.9,-54.884Z" style="fill-opacity:0.2;fill-rule:nonzero;"/>
            <path id="path1243" d="M61.541,-47.476C61.541,-47.514 61.539,-47.554 61.534,-47.59C61.528,-47.633 61.523,-47.673 61.516,-47.714C61.511,-47.734 61.511,-47.755 61.506,-47.772C61.503,-47.788 61.496,-47.805 61.49,-47.821C61.48,-47.861 61.468,-47.902 61.455,-47.942C61.445,-47.978 61.432,-48.014 61.419,-48.047C61.404,-48.085 61.386,-48.12 61.366,-48.156C61.348,-48.189 61.333,-48.222 61.313,-48.255C61.292,-48.288 61.27,-48.321 61.249,-48.354C61.229,-48.384 61.206,-48.415 61.186,-48.445C61.16,-48.475 61.133,-48.506 61.107,-48.534C61.082,-48.562 61.056,-48.59 61.031,-48.615C61.003,-48.643 60.973,-48.668 60.942,-48.691C60.912,-48.714 60.884,-48.742 60.853,-48.762C60.82,-48.785 60.79,-48.805 60.757,-48.826C60.721,-48.846 60.691,-48.869 60.653,-48.884C60.645,-48.889 60.638,-48.894 60.628,-48.899C60.6,-48.912 60.574,-48.922 60.546,-48.932C60.508,-48.948 60.475,-48.965 60.437,-48.978C60.397,-48.993 60.356,-49.003 60.31,-49.016C60.285,-49.024 60.26,-49.034 60.234,-49.039L35.684,-54.315C35.248,-54.409 34.796,-54.323 34.423,-54.082L1.155,-32.286C1.148,-32.281 1.14,-32.273 1.132,-32.268C1.12,-32.26 1.107,-32.253 1.094,-32.245C1.064,-32.225 1.036,-32.197 1.006,-32.174C0.99,-32.161 0.97,-32.146 0.955,-32.133C0.848,-32.035 0.752,-31.925 0.673,-31.806C0.66,-31.788 0.65,-31.765 0.64,-31.748C0.615,-31.705 0.589,-31.661 0.569,-31.618C0.559,-31.593 0.546,-31.568 0.536,-31.545C0.518,-31.502 0.5,-31.461 0.488,-31.418C0.48,-31.392 0.47,-31.364 0.462,-31.339C0.45,-31.293 0.442,-31.25 0.432,-31.205C0.427,-31.179 0.422,-31.151 0.417,-31.126C0.409,-31.075 0.407,-31.022 0.404,-30.971C0.404,-30.951 0.402,-30.93 0.402,-30.91L0.402,26.917C0.402,27.633 0.861,28.27 1.539,28.496L26.317,36.755C26.834,36.927 27.403,36.836 27.84,36.508L60.881,11.728C61.298,11.413 61.546,10.921 61.546,10.398L61.546,-47.417C61.546,-47.437 61.544,-47.455 61.541,-47.476L61.541,-47.476Z" style="fill-opacity:0.2;fill-rule:nonzero;"/>
            <path id="path1244" d="M33.426,-55.358L0.155,-33.562C0.145,-33.552 0.049,-33.491 0.049,-33.491C0.069,-33.504 -0.071,-33.395 -0.071,-33.395C-0.119,-33.357 -0.119,-33.367 -0.159,-33.321L-0.598,-32.809C-0.639,-32.76 -0.626,-32.768 -0.657,-32.712L-0.659,-32.705C-0.654,-32.715 -0.766,-32.512 -0.766,-32.512C-0.771,-32.499 -0.812,-32.408 -0.812,-32.408C-0.814,-32.397 -0.893,-32.192 -0.893,-32.192L-0.926,-32.088C-0.931,-32.068 -0.979,-31.864 -0.979,-31.864L-1.002,-31.738L-1.022,-31.484C-1.022,-31.507 -1.027,-31.41 -1.027,-31.41L-1.027,26.438C-1.027,27.565 -0.309,28.562 0.762,28.92L25.54,37.181C26.355,37.45 27.251,37.308 27.936,36.793L60.975,12.012C61.63,11.522 62.021,10.738 62.021,9.921L62.021,-47.894C62.021,-47.915 62.016,-47.983 62.013,-48.011C62.013,-48.036 62.001,-48.179 62.001,-48.181C62.001,-48.181 61.975,-48.346 61.975,-48.356C61.973,-48.359 61.96,-48.45 61.96,-48.45C61.955,-48.491 61.952,-48.488 61.94,-48.529C61.94,-48.529 61.884,-48.727 61.881,-48.727L61.828,-48.874C61.82,-48.892 61.744,-49.059 61.744,-49.059C61.742,-49.064 61.666,-49.209 61.666,-49.209C61.655,-49.227 61.556,-49.379 61.556,-49.379C61.556,-49.379 61.457,-49.516 61.455,-49.516L61.356,-49.635C61.343,-49.651 61.325,-49.666 61.313,-49.681L61.216,-49.783C61.206,-49.79 61.089,-49.892 61.089,-49.892C61.054,-49.92 60.942,-50.008 60.942,-50.008C60.927,-50.019 60.793,-50.107 60.793,-50.107C60.77,-50.12 60.61,-50.214 60.61,-50.214C60.584,-50.227 60.445,-50.29 60.445,-50.29C60.417,-50.3 60.275,-50.359 60.275,-50.359C60.277,-50.359 60.084,-50.417 60.084,-50.417C60.092,-50.415 59.952,-50.453 59.952,-50.453L35.408,-55.729C34.717,-55.874 34.014,-55.744 33.426,-55.358L33.426,-55.358Z" style="fill-opacity:0.2;fill-rule:nonzero;"/>
            <path id="path1245" d="M61.064,-47.953C61.064,-47.991 61.062,-48.031 61.056,-48.067C61.051,-48.11 61.046,-48.151 61.039,-48.191C61.034,-48.212 61.034,-48.232 61.029,-48.25C61.026,-48.265 61.018,-48.283 61.013,-48.298C61.003,-48.338 60.99,-48.379 60.978,-48.42C60.965,-48.455 60.952,-48.488 60.94,-48.524C60.924,-48.562 60.907,-48.597 60.886,-48.633C60.869,-48.666 60.853,-48.699 60.833,-48.732C60.813,-48.765 60.79,-48.798 60.77,-48.831C60.749,-48.861 60.727,-48.892 60.706,-48.922C60.681,-48.953 60.653,-48.983 60.628,-49.011C60.602,-49.039 60.577,-49.067 60.551,-49.092C60.523,-49.12 60.493,-49.145 60.463,-49.168C60.432,-49.191 60.404,-49.219 60.374,-49.239C60.341,-49.262 60.31,-49.283 60.277,-49.303C60.244,-49.328 60.211,-49.349 60.176,-49.366C60.168,-49.371 60.161,-49.376 60.15,-49.382C60.122,-49.394 60.097,-49.404 60.069,-49.415C60.031,-49.43 59.998,-49.448 59.96,-49.46C59.919,-49.475 59.879,-49.486 59.833,-49.498C59.808,-49.506 59.782,-49.516 59.757,-49.521L35.207,-54.798C34.771,-54.891 34.319,-54.805 33.946,-54.564L0.678,-32.765C0.671,-32.76 0.663,-32.753 0.655,-32.748C0.643,-32.74 0.63,-32.732 0.617,-32.725C0.587,-32.705 0.559,-32.677 0.528,-32.654C0.513,-32.641 0.493,-32.626 0.478,-32.613C0.371,-32.514 0.275,-32.405 0.196,-32.286C0.183,-32.268 0.173,-32.245 0.163,-32.227C0.138,-32.184 0.112,-32.141 0.092,-32.098C0.082,-32.073 0.069,-32.047 0.059,-32.024C0.041,-31.981 0.023,-31.941 0.011,-31.897C0.003,-31.872 -0.007,-31.844 -0.015,-31.819C-0.027,-31.773 -0.035,-31.73 -0.045,-31.684C-0.05,-31.659 -0.055,-31.631 -0.06,-31.606C-0.068,-31.555 -0.071,-31.502 -0.073,-31.451C-0.073,-31.43 -0.076,-31.41 -0.076,-31.39L-0.076,26.438C-0.076,27.154 0.384,27.791 1.061,28.016L25.84,36.275C26.357,36.448 26.926,36.356 27.362,36.029L60.404,11.248C60.82,10.933 61.069,10.441 61.069,9.918L61.069,-47.894C61.069,-47.915 61.067,-47.932 61.064,-47.953L61.064,-47.953Z" style="fill-opacity:0.2;fill-rule:nonzero;"/>
            <path id="path1252" d="M32.948,-56.158L-0.319,-34.362C-0.329,-34.352 -0.426,-34.288 -0.426,-34.288C-0.406,-34.301 -0.545,-34.192 -0.545,-34.192C-0.593,-34.154 -0.593,-34.164 -0.634,-34.118L-1.073,-33.606C-1.114,-33.557 -1.101,-33.565 -1.131,-33.509L-1.137,-33.504C-1.131,-33.512 -1.243,-33.311 -1.243,-33.311C-1.248,-33.298 -1.289,-33.207 -1.289,-33.207C-1.291,-33.197 -1.37,-32.991 -1.37,-32.989L-1.403,-32.885C-1.408,-32.864 -1.456,-32.661 -1.456,-32.661L-1.479,-32.534L-1.497,-32.281C-1.497,-32.304 -1.502,-32.207 -1.502,-32.207L-1.502,25.643C-1.502,26.77 -0.784,27.768 0.287,28.126L25.065,36.387C25.88,36.656 26.776,36.511 27.461,35.998L60.501,11.218C61.155,10.725 61.546,9.944 61.546,9.126L61.546,-48.694C61.546,-48.712 61.541,-48.783 61.539,-48.81C61.539,-48.836 61.526,-48.978 61.526,-48.981C61.526,-48.981 61.501,-49.145 61.501,-49.156C61.498,-49.158 61.485,-49.25 61.485,-49.25C61.478,-49.29 61.475,-49.29 61.463,-49.328C61.463,-49.328 61.407,-49.526 61.404,-49.526L61.351,-49.671C61.343,-49.689 61.267,-49.856 61.267,-49.856C61.265,-49.859 61.188,-50.006 61.188,-50.006C61.178,-50.021 61.079,-50.176 61.079,-50.176C61.079,-50.176 60.98,-50.313 60.978,-50.313L60.879,-50.432C60.866,-50.447 60.848,-50.465 60.836,-50.478L60.739,-50.579C60.729,-50.587 60.612,-50.691 60.612,-50.691C60.577,-50.719 60.465,-50.808 60.465,-50.808C60.45,-50.818 60.315,-50.907 60.315,-50.907C60.293,-50.922 60.133,-51.013 60.133,-51.013C60.107,-51.026 59.968,-51.09 59.968,-51.09C59.94,-51.1 59.798,-51.158 59.798,-51.158C59.8,-51.158 59.607,-51.214 59.607,-51.214C59.615,-51.211 59.475,-51.249 59.475,-51.249L34.931,-56.526C34.243,-56.673 33.537,-56.544 32.948,-56.158L32.948,-56.158Z" style="fill:url(#_Linear6);fill-rule:nonzero;"/>
            <path id="path1259" d="M60.589,-48.752C60.589,-48.79 60.587,-48.828 60.582,-48.866C60.577,-48.907 60.572,-48.95 60.564,-48.988C60.559,-49.008 60.559,-49.029 60.554,-49.047C60.551,-49.062 60.544,-49.079 60.539,-49.095C60.529,-49.135 60.516,-49.176 60.503,-49.217C60.49,-49.252 60.478,-49.285 60.465,-49.321C60.45,-49.359 60.432,-49.394 60.412,-49.43C60.394,-49.463 60.379,-49.496 60.359,-49.529C60.338,-49.562 60.315,-49.595 60.295,-49.628C60.275,-49.658 60.252,-49.689 60.232,-49.719C60.206,-49.75 60.178,-49.777 60.153,-49.808C60.128,-49.836 60.102,-49.861 60.077,-49.889C60.049,-49.915 60.018,-49.94 59.988,-49.965C59.957,-49.988 59.93,-50.013 59.899,-50.036C59.866,-50.059 59.836,-50.077 59.803,-50.097C59.767,-50.118 59.737,-50.14 59.699,-50.158C59.691,-50.163 59.683,-50.168 59.673,-50.173C59.645,-50.186 59.62,-50.196 59.592,-50.209C59.554,-50.224 59.521,-50.239 59.483,-50.255C59.442,-50.267 59.402,-50.28 59.356,-50.293C59.331,-50.298 59.305,-50.308 59.28,-50.315L34.73,-55.592C34.294,-55.686 33.842,-55.6 33.469,-55.356L0.201,-33.565C0.193,-33.56 0.186,-33.552 0.178,-33.547C0.165,-33.54 0.153,-33.532 0.14,-33.524C0.11,-33.501 0.082,-33.476 0.051,-33.453C0.036,-33.441 0.016,-33.428 0,-33.413C-0.106,-33.314 -0.203,-33.204 -0.281,-33.085C-0.294,-33.065 -0.304,-33.045 -0.314,-33.027C-0.34,-32.984 -0.365,-32.943 -0.385,-32.897C-0.395,-32.875 -0.408,-32.849 -0.418,-32.824C-0.436,-32.781 -0.454,-32.74 -0.466,-32.697C-0.474,-32.672 -0.484,-32.644 -0.492,-32.618C-0.505,-32.575 -0.512,-32.529 -0.522,-32.484C-0.527,-32.458 -0.532,-32.43 -0.538,-32.405C-0.545,-32.352 -0.548,-32.301 -0.55,-32.248C-0.55,-32.227 -0.553,-32.207 -0.553,-32.187L-0.553,25.641C-0.553,26.357 -0.093,26.991 0.584,27.219L25.362,35.478C25.88,35.651 26.449,35.557 26.885,35.229L59.927,10.451C60.343,10.136 60.592,9.644 60.592,9.121L60.592,-48.694C60.594,-48.712 60.592,-48.732 60.589,-48.752L60.589,-48.752Z" style="fill:url(#_Linear7);fill-rule:nonzero;"/>
            <g id="polygon1272" transform="matrix(2.53797,0,0,2.53797,-30.176,-58.1223)">
                <path d="M35.109,26.496L22.091,36.26L12.329,33.005L12.329,10.224L22.091,13.479L35.109,3.715L35.109,26.496Z" style="fill:url(#_Radial8);fill-rule:nonzero;"/>
            </g>
            <g id="polygon1279" transform="matrix(2.53797,0,0,2.53797,-30.176,-58.1223)">
                <path d="M12.329,10.224L22.091,13.479L35.109,3.715L25.437,1.637L12.329,10.224Z" style="fill:url(#_Linear9);fill-rule:nonzero;"/>
            </g>
            <g id="polygon1286" transform="matrix(2.53797,0,0,2.53797,-30.176,-58.1223)">
                <path d="M22.091,36.26L22.091,13.479L12.329,10.224L12.329,33.005L22.091,36.26Z" style="fill:url(#_Linear10);fill-rule:nonzero;"/>
            </g>
            <g id="polygon1293" transform="matrix(2.53797,0,0,2.53797,-30.176,-58.1223)">
                <path d="M12.329,33.005L22.091,36.26L22.091,30.504L12.329,27.4L12.329,33.005Z" style="fill:url(#_Linear11);fill-rule:nonzero;"/>
            </g>
            <g id="polygon1300" transform="matrix(2.53797,0,0,2.53797,-30.176,-58.1223)">
                <path d="M20.093,18.261L20.093,16.546L13.806,14.451L13.806,16.165L20.093,18.261Z" style="fill:url(#_Linear12);fill-rule:nonzero;"/>
            </g>
            <g id="polygon1307" transform="matrix(2.53797,0,0,2.53797,-30.176,-58.1223)">
                <path d="M20.093,20.689L20.093,18.975L13.806,16.879L13.806,18.594L20.093,20.689Z" style="fill:url(#_Linear13);fill-rule:nonzero;"/>
            </g>
            <g id="polygon1314" transform="matrix(2.53797,0,0,2.53797,-30.176,-58.1223)">
                <path d="M20.093,23.118L20.093,21.404L13.806,19.308L13.806,21.023L20.093,23.118Z" style="fill:url(#_Linear14);fill-rule:nonzero;"/>
            </g>
            <g id="g1315" transform="matrix(2.53797,0,0,2.53797,-30.176,-58.1223)">
                <path id="path1322" d="M19.776,33.411C19.323,33.29 18.968,33.508 18.968,33.908C18.968,34.308 19.323,34.717 19.776,34.838L20.256,34.967C20.71,35.089 21.065,34.87 21.065,34.47C21.065,34.071 20.71,33.661 20.256,33.54L19.776,33.411Z" style="fill:url(#_Linear15);fill-rule:nonzero;"/>
                <path id="path1331" d="M19.776,33.603C19.429,33.509 19.146,33.668 19.146,33.957C19.146,34.246 19.429,34.556 19.776,34.648L20.256,34.777C20.604,34.87 20.886,34.711 20.886,34.423C20.886,34.135 20.604,33.825 20.256,33.733L19.776,33.603Z" style="fill:url(#_Linear16);fill-rule:nonzero;"/>
                <path id="path1342" d="M20.828,34.406C20.828,34.66 20.572,34.797 20.257,34.712L19.777,34.584C19.462,34.499 19.207,34.226 19.207,33.972C19.207,33.719 19.462,33.582 19.777,33.666L20.257,33.795C20.572,33.88 20.828,34.153 20.828,34.406Z" style="fill:url(#_Linear17);fill-rule:nonzero;"/>
                <path id="path1351" d="M19.776,33.794C19.531,33.729 19.325,33.832 19.325,34.02C19.325,34.208 19.532,34.422 19.776,34.489L20.256,34.618C20.501,34.683 20.708,34.58 20.708,34.391C20.708,34.202 20.501,33.989 20.256,33.923L19.776,33.794Z" style="fill:url(#_Linear18);fill-rule:nonzero;"/>
                <path id="path1365" d="M19.758,33.713C19.556,33.659 19.4,33.75 19.4,33.864C19.4,33.978 19.556,34.153 19.758,34.207L20.276,34.346C20.481,34.402 20.634,34.312 20.634,34.196C20.634,34.08 20.481,33.908 20.276,33.853L19.758,33.713Z" style="fill:url(#_Linear19);fill-rule:nonzero;"/>
            </g>
            <g id="_x3C_Slice_x3E_" transform="matrix(1,0,0,1,-12.8,0)">
                <path d="M0,48L0,0L48,0L48,48" style="fill:none;"/>
            </g>
        </g>
        <g id="text6294">
            <path id="path4233" d="M221.021,357.595L221.021,360.091C220.224,359.349 219.372,358.794 218.466,358.427C217.567,358.06 216.61,357.876 215.595,357.876C213.595,357.876 212.064,358.49 211.001,359.716C209.939,360.935 209.407,362.701 209.407,365.013C209.407,367.318 209.939,369.083 211.001,370.31C212.064,371.529 213.595,372.138 215.595,372.138C216.61,372.138 217.567,371.955 218.466,371.587C219.372,371.22 220.224,370.666 221.021,369.923L221.021,372.396C220.192,372.958 219.313,373.38 218.384,373.662C217.462,373.943 216.485,374.083 215.454,374.083C212.806,374.083 210.72,373.275 209.196,371.658C207.673,370.033 206.911,367.818 206.911,365.013C206.911,362.201 207.673,359.986 209.196,358.369C210.72,356.744 212.806,355.931 215.454,355.931C216.501,355.931 217.485,356.072 218.407,356.353C219.337,356.626 220.208,357.041 221.021,357.595" style="fill:white;fill-rule:nonzero;"/>
            <path id="path4235" d="M224.606,355.509L226.763,355.509L226.763,373.744L224.606,373.744L224.606,355.509" style="fill:white;fill-rule:nonzero;"/>
            <path id="path4237" d="M231.263,360.619L233.419,360.619L233.419,373.744L231.263,373.744L231.263,360.619M231.263,355.509L233.419,355.509L233.419,358.24L231.263,358.24L231.263,355.509" style="fill:white;fill-rule:nonzero;"/>
            <path id="path4239" d="M249.146,366.642L249.146,367.697L239.231,367.697C239.325,369.181 239.771,370.314 240.567,371.095C241.372,371.869 242.489,372.255 243.919,372.255C244.747,372.255 245.548,372.154 246.321,371.951C247.103,371.748 247.876,371.443 248.642,371.037L248.642,373.076C247.868,373.404 247.075,373.654 246.263,373.826C245.45,373.998 244.626,374.083 243.79,374.083C241.696,374.083 240.036,373.474 238.81,372.255C237.591,371.037 236.981,369.388 236.981,367.31C236.981,365.162 237.56,363.458 238.716,362.201C239.88,360.935 241.446,360.302 243.415,360.302C245.181,360.302 246.575,360.873 247.599,362.013C248.63,363.146 249.146,364.689 249.146,366.642M246.989,366.009C246.974,364.83 246.642,363.888 245.993,363.185C245.353,362.482 244.501,362.13 243.439,362.13C242.235,362.13 241.271,362.47 240.544,363.15C239.825,363.83 239.411,364.787 239.302,366.021L246.989,366.009" style="fill:white;fill-rule:nonzero;"/>
            <path id="path4241" d="M263.595,365.822L263.595,373.744L261.439,373.744L261.439,365.892C261.439,364.65 261.196,363.72 260.712,363.103C260.228,362.486 259.501,362.177 258.532,362.177C257.368,362.177 256.45,362.548 255.778,363.291C255.106,364.033 254.771,365.044 254.771,366.326L254.771,373.744L252.603,373.744L252.603,360.619L254.771,360.619L254.771,362.658C255.286,361.869 255.892,361.279 256.587,360.888C257.29,360.498 258.099,360.302 259.013,360.302C260.521,360.302 261.661,360.771 262.435,361.708C263.208,362.638 263.595,364.009 263.595,365.822" style="fill:white;fill-rule:nonzero;"/>
            <path id="path4243" d="M270.052,356.892L270.052,360.619L274.493,360.619L274.493,362.294L270.052,362.294L270.052,369.419C270.052,370.49 270.196,371.177 270.485,371.482C270.782,371.787 271.38,371.939 272.278,371.939L274.493,371.939L274.493,373.744L272.278,373.744C270.614,373.744 269.466,373.435 268.833,372.818C268.2,372.193 267.884,371.06 267.884,369.419L267.884,362.294L266.302,362.294L266.302,360.619L267.884,360.619L267.884,356.892L270.052,356.892" style="fill:white;fill-rule:nonzero;"/>
            <path id="path4245" d="M285.708,361.005L285.708,363.044C285.099,362.732 284.466,362.498 283.81,362.341C283.153,362.185 282.474,362.107 281.771,362.107C280.7,362.107 279.896,362.271 279.356,362.599C278.825,362.927 278.56,363.419 278.56,364.076C278.56,364.576 278.751,364.97 279.134,365.259C279.517,365.541 280.286,365.81 281.442,366.068L282.181,366.232C283.712,366.56 284.798,367.025 285.439,367.626C286.087,368.22 286.411,369.052 286.411,370.123C286.411,371.341 285.927,372.306 284.958,373.017C283.997,373.728 282.673,374.083 280.985,374.083C280.282,374.083 279.548,374.013 278.782,373.873C278.024,373.74 277.224,373.537 276.38,373.263L276.38,371.037C277.177,371.451 277.962,371.763 278.735,371.974C279.509,372.177 280.274,372.279 281.032,372.279C282.048,372.279 282.829,372.107 283.376,371.763C283.923,371.412 284.196,370.919 284.196,370.287C284.196,369.701 283.997,369.251 283.599,368.939C283.208,368.626 282.345,368.326 281.009,368.037L280.259,367.861C278.923,367.58 277.958,367.15 277.364,366.572C276.771,365.986 276.474,365.185 276.474,364.169C276.474,362.935 276.911,361.982 277.786,361.31C278.661,360.638 279.903,360.302 281.513,360.302C282.31,360.302 283.06,360.361 283.763,360.478C284.466,360.595 285.114,360.771 285.708,361.005" style="fill:white;fill-rule:nonzero;"/>
        </g>
        <g id="g4201" transform="matrix(1,0,0,1,26.5582,-78.0815)">
            <path id="path4611" d="M300.155,377.384C267.641,366.19 258.013,398.86 282.147,410.566C262.947,441.217 320.71,455.309 334.713,434.214C363.435,453.71 385.156,441.846 382.928,427.615C438.941,424.482 415.243,341.857 363.642,371.966C352.261,348.003 304.533,348.89 300.155,377.384Z" style="fill:rgb(92,90,90);fill-rule:nonzero;stroke:rgb(100,100,100);stroke-width:1px;"/>
            <g id="text6298">
                <path id="path4248" d="M295.708,390.771L298.075,390.771L298.075,408.267L295.708,408.267L295.708,390.771" style="fill:white;fill-rule:nonzero;"/>
                <path id="path4250" d="M313.602,400.345L313.602,408.267L311.446,408.267L311.446,400.416C311.446,399.174 311.204,398.244 310.719,397.627C310.235,397.01 309.508,396.701 308.54,396.701C307.376,396.701 306.458,397.072 305.786,397.814C305.114,398.556 304.778,399.568 304.778,400.849L304.778,408.267L302.61,408.267L302.61,395.142L304.778,395.142L304.778,397.181C305.294,396.392 305.899,395.802 306.594,395.412C307.298,395.021 308.106,394.826 309.02,394.826C310.528,394.826 311.669,395.295 312.442,396.232C313.215,397.162 313.602,398.533 313.602,400.345" style="fill:white;fill-rule:nonzero;"/>
                <path id="path4252" d="M320.059,391.416L320.059,395.142L324.501,395.142L324.501,396.818L320.059,396.818L320.059,403.943C320.059,405.013 320.204,405.701 320.493,406.006C320.79,406.31 321.387,406.463 322.286,406.463L324.501,406.463L324.501,408.267L322.286,408.267C320.622,408.267 319.473,407.959 318.841,407.342C318.208,406.717 317.891,405.584 317.891,403.943L317.891,396.818L316.309,396.818L316.309,395.142L317.891,395.142L317.891,391.416L320.059,391.416" style="fill:white;fill-rule:nonzero;"/>
                <path id="path4254" d="M338.575,401.166L338.575,402.22L328.661,402.22C328.755,403.705 329.2,404.838 329.997,405.619C330.801,406.392 331.919,406.779 333.348,406.779C334.176,406.779 334.977,406.677 335.751,406.474C336.532,406.271 337.305,405.967 338.071,405.56L338.071,407.599C337.298,407.927 336.505,408.177 335.692,408.349C334.88,408.521 334.055,408.607 333.219,408.607C331.126,408.607 329.466,407.998 328.239,406.779C327.02,405.56 326.411,403.912 326.411,401.834C326.411,399.685 326.989,397.982 328.145,396.724C329.309,395.459 330.876,394.826 332.844,394.826C334.61,394.826 336.005,395.396 337.028,396.537C338.059,397.67 338.575,399.213 338.575,401.166M336.419,400.533C336.403,399.353 336.071,398.412 335.423,397.709C334.782,397.006 333.93,396.654 332.868,396.654C331.665,396.654 330.7,396.994 329.973,397.674C329.255,398.353 328.841,399.31 328.731,400.545L336.419,400.533" style="fill:white;fill-rule:nonzero;"/>
                <path id="path4256" d="M349.719,397.158C349.477,397.017 349.212,396.916 348.923,396.853C348.641,396.783 348.329,396.748 347.985,396.748C346.766,396.748 345.829,397.146 345.173,397.943C344.524,398.732 344.2,399.869 344.2,401.353L344.2,408.267L342.032,408.267L342.032,395.142L344.2,395.142L344.2,397.181C344.653,396.385 345.243,395.795 345.969,395.412C346.696,395.021 347.579,394.826 348.618,394.826C348.766,394.826 348.93,394.838 349.11,394.861C349.29,394.877 349.489,394.904 349.708,394.943L349.719,397.158" style="fill:white;fill-rule:nonzero;"/>
                <path id="path4258" d="M362.493,400.345L362.493,408.267L360.337,408.267L360.337,400.416C360.337,399.174 360.094,398.244 359.61,397.627C359.126,397.01 358.399,396.701 357.43,396.701C356.266,396.701 355.348,397.072 354.676,397.814C354.005,398.556 353.669,399.568 353.669,400.849L353.669,408.267L351.501,408.267L351.501,395.142L353.669,395.142L353.669,397.181C354.184,396.392 354.79,395.802 355.485,395.412C356.188,395.021 356.997,394.826 357.911,394.826C359.419,394.826 360.559,395.295 361.333,396.232C362.106,397.162 362.493,398.533 362.493,400.345" style="fill:white;fill-rule:nonzero;"/>
                <path id="path4260" d="M378.044,401.166L378.044,402.22L368.13,402.22C368.223,403.705 368.669,404.838 369.466,405.619C370.27,406.392 371.387,406.779 372.817,406.779C373.645,406.779 374.446,406.677 375.219,406.474C376.001,406.271 376.774,405.967 377.54,405.56L377.54,407.599C376.766,407.927 375.973,408.177 375.161,408.349C374.348,408.521 373.524,408.607 372.688,408.607C370.594,408.607 368.934,407.998 367.708,406.779C366.489,405.56 365.88,403.912 365.88,401.834C365.88,399.685 366.458,397.982 367.614,396.724C368.778,395.459 370.344,394.826 372.313,394.826C374.079,394.826 375.473,395.396 376.497,396.537C377.528,397.67 378.044,399.213 378.044,401.166M375.887,400.533C375.872,399.353 375.54,398.412 374.891,397.709C374.251,397.006 373.399,396.654 372.337,396.654C371.133,396.654 370.169,396.994 369.442,397.674C368.723,398.353 368.309,399.31 368.2,400.545L375.887,400.533" style="fill:white;fill-rule:nonzero;"/>
                <path id="path4262" d="M383.716,391.416L383.716,395.142L388.157,395.142L388.157,396.818L383.716,396.818L383.716,403.943C383.716,405.013 383.86,405.701 384.149,406.006C384.446,406.31 385.044,406.463 385.942,406.463L388.157,406.463L388.157,408.267L385.942,408.267C384.278,408.267 383.13,407.959 382.497,407.342C381.864,406.717 381.548,405.584 381.548,403.943L381.548,396.818L379.966,396.818L379.966,395.142L381.548,395.142L381.548,391.416L383.716,391.416" style="fill:white;fill-rule:nonzero;"/>
            </g>
        </g>
        <g id="text6302">
            <path id="path4265" d="M522.104,398.379L522.104,400.687C521.206,400.258 520.358,399.937 519.561,399.726C518.764,399.515 517.995,399.41 517.253,399.41C515.964,399.41 514.967,399.66 514.264,400.16C513.569,400.66 513.221,401.371 513.221,402.293C513.221,403.066 513.452,403.652 513.913,404.051C514.382,404.441 515.264,404.758 516.561,405L517.991,405.293C519.757,405.629 521.057,406.222 521.893,407.074C522.737,407.918 523.159,409.051 523.159,410.472C523.159,412.168 522.589,413.453 521.448,414.328C520.315,415.203 518.651,415.64 516.456,415.64C515.628,415.64 514.745,415.547 513.807,415.359C512.878,415.172 511.913,414.894 510.913,414.527L510.913,412.09C511.874,412.629 512.815,413.035 513.737,413.308C514.659,413.582 515.565,413.719 516.456,413.719C517.807,413.719 518.85,413.453 519.585,412.922C520.319,412.39 520.686,411.633 520.686,410.648C520.686,409.789 520.421,409.117 519.889,408.633C519.366,408.148 518.503,407.785 517.3,407.543L515.858,407.262C514.092,406.91 512.815,406.359 512.026,405.609C511.237,404.859 510.843,403.816 510.843,402.48C510.843,400.933 511.385,399.715 512.471,398.824C513.565,397.933 515.069,397.488 516.983,397.488C517.803,397.488 518.639,397.562 519.491,397.711C520.342,397.859 521.214,398.082 522.104,398.379" style="fill:white;fill-rule:nonzero;"/>
            <path id="path4267" d="M537.983,408.199L537.983,409.254L528.069,409.254C528.163,410.738 528.608,411.871 529.405,412.652C530.21,413.426 531.327,413.812 532.757,413.812C533.585,413.812 534.385,413.711 535.159,413.508C535.94,413.304 536.714,413 537.479,412.594L537.479,414.633C536.706,414.961 535.913,415.211 535.1,415.383C534.288,415.554 533.464,415.64 532.628,415.64C530.534,415.64 528.874,415.031 527.647,413.812C526.428,412.594 525.819,410.945 525.819,408.867C525.819,406.719 526.397,405.015 527.553,403.758C528.717,402.492 530.284,401.859 532.253,401.859C534.018,401.859 535.413,402.429 536.436,403.57C537.467,404.703 537.983,406.246 537.983,408.199M535.827,407.566C535.811,406.387 535.479,405.445 534.831,404.742C534.19,404.039 533.339,403.687 532.276,403.687C531.073,403.687 530.108,404.027 529.382,404.707C528.663,405.387 528.249,406.344 528.139,407.578L535.827,407.566" style="fill:white;fill-rule:nonzero;"/>
            <path id="path4269" d="M549.128,404.191C548.885,404.051 548.62,403.949 548.331,403.887C548.05,403.816 547.737,403.781 547.393,403.781C546.175,403.781 545.237,404.179 544.581,404.976C543.932,405.765 543.608,406.902 543.608,408.387L543.608,415.301L541.44,415.301L541.44,402.176L543.608,402.176L543.608,404.215C544.061,403.418 544.651,402.828 545.378,402.445C546.104,402.054 546.987,401.859 548.026,401.859C548.175,401.859 548.339,401.871 548.518,401.894C548.698,401.91 548.897,401.937 549.116,401.976L549.128,404.191" style="fill:white;fill-rule:nonzero;"/>
            <path id="path4271" d="M549.866,402.176L552.151,402.176L556.253,413.191L560.354,402.176L562.639,402.176L557.718,415.301L554.788,415.301L549.866,402.176" style="fill:white;fill-rule:nonzero;"/>
            <path id="path4273" d="M576.843,408.199L576.843,409.254L566.928,409.254C567.022,410.738 567.467,411.871 568.264,412.652C569.069,413.426 570.186,413.812 571.616,413.812C572.444,413.812 573.245,413.711 574.018,413.508C574.8,413.304 575.573,413 576.339,412.594L576.339,414.633C575.565,414.961 574.772,415.211 573.96,415.383C573.147,415.554 572.323,415.64 571.487,415.64C569.393,415.64 567.733,415.031 566.507,413.812C565.288,412.594 564.678,410.945 564.678,408.867C564.678,406.719 565.257,405.015 566.413,403.758C567.577,402.492 569.143,401.859 571.112,401.859C572.878,401.859 574.272,402.429 575.296,403.57C576.327,404.703 576.842,406.246 576.842,408.199M574.686,407.566C574.671,406.387 574.339,405.445 573.69,404.742C573.05,404.039 572.198,403.687 571.135,403.687C569.932,403.687 568.967,404.027 568.241,404.707C567.522,405.387 567.108,406.344 566.999,407.578L574.686,407.566" style="fill:white;fill-rule:nonzero;"/>
            <path id="path4275" d="M587.987,404.191C587.745,404.051 587.479,403.949 587.19,403.887C586.909,403.816 586.596,403.781 586.253,403.781C585.034,403.781 584.096,404.179 583.44,404.976C582.792,405.765 582.467,406.902 582.468,408.387L582.468,415.301L580.3,415.301L580.3,402.176L582.468,402.176L582.468,404.215C582.921,403.418 583.51,402.828 584.237,402.445C584.964,402.054 585.846,401.859 586.885,401.859C587.034,401.859 587.198,401.871 587.378,401.894C587.557,401.91 587.757,401.937 587.975,401.976L587.987,404.191" style="fill:white;fill-rule:nonzero;"/>
        </g>
        <path id="path4208" d="M211.425,321.608L289.206,321.608" style="fill:none;stroke:white;stroke-width:1px;"/>
        <g id="path4210" transform="matrix(1,0,0,1,118.491,171.608)">
            <path d="M179.807,263.635L226.274,202.015" style="fill:none;stroke:white;stroke-width:1px;"/>
        </g>
        <path id="path4210-5" d="M287.024,213.453L333.491,275.072" style="fill:none;stroke:white;stroke-width:1px;"/>
    </g>
    <g id="devices" transform="matrix(1,0,0,1,0,97.4383)">
        <g id="g3420" transform="matrix(0.800147,0,0,0.800147,41.823,129.668)">
            <g id="rect3416" transform="matrix(1,0,0,1,0,-297.438)">
                <rect x="52.528" y="42.653" width="70.458" height="50.003" style="fill:rgb(242,242,242);"/>
            </g>
            <path id="path3364" d="M43.675,-182.507L49.933,-195.005L124.901,-195.005L137.417,-170.01L87.417,-170.01L37.417,-170.01L43.675,-182.507ZM49.924,-229.374L49.924,-257.494L124.91,-257.494L124.91,-201.254L87.417,-201.254L49.924,-201.254L49.924,-229.374ZM118.661,-229.374L118.661,-251.245L87.417,-251.245L56.173,-251.245L56.173,-207.503L118.661,-207.503L118.661,-229.374Z" style="fill:white;fill-rule:nonzero;"/>
        </g>
        <g id="g3424" transform="matrix(0.7,0,0,0.7,5.99172,114.793)">
            <rect id="rect3414" x="56.046" y="-134.64" width="46.429" height="83.834" style="fill:rgb(242,242,242);"/>
            <g id="path3391" transform="matrix(0.0141723,0,0,-0.0141723,50.5724,-38.6894)">
                <path d="M456,7054C308,7018 147,6891 83,6759C15,6617 20,6891 20,3547C20,1402 23,506 31,468C71,275 228,102 422,39L495,15L3425,15L3497,38C3583,65 3704,143 3760,208C3812,269 3865,370 3887,451C3904,511 3905,683 3905,3550L3905,6585L3878,6665C3811,6862 3652,7009 3458,7055C3366,7077 546,7076 456,7054ZM2368,6828C2384,6812 2383,6805 2364,6786C2351,6772 2300,6770 1965,6770C1754,6770 1575,6773 1566,6776C1550,6782 1544,6821 1557,6833C1560,6837 1742,6840 1960,6840C2255,6840 2359,6837 2368,6828ZM3435,6525L3460,6501L3460,3733C3459,1573 3457,962 3447,949C3440,940 3425,928 3413,922C3397,913 3028,910 1955,910L518,910L489,939L460,968L460,3725C460,5801 463,6487 472,6503C478,6515 490,6530 499,6537C511,6547 841,6549 1963,6550L3411,6550L3435,6525ZM2050,650C2072,639 2102,611 2117,588C2156,529 2157,441 2118,383C2042,268 1866,275 1798,395C1770,445 1769,520 1795,574C1836,660 1959,696 2050,650Z" style="fill:white;fill-rule:nonzero;"/>
            </g>
        </g>
        <g id="g3429" transform="matrix(0.6,0,0,0.6,54.2521,116.432)">
            <g id="rect3418" transform="matrix(1,0,0,1,0,-297.438)">
                <rect x="19.951" y="320.95" width="111.117" height="75.509" style="fill:rgb(242,242,242);"/>
            </g>
            <path id="path3410" d="M43.072,119.489C42.619,119.036 42.248,118.35 42.248,117.964C42.248,117.578 42.619,116.892 43.072,116.439L43.895,115.615L62.382,115.615L62.382,108.904L62.382,102.192L40.89,102.192L19.399,102.192L18.575,101.368L17.751,100.545L17.751,61.473C17.751,23.503 17.769,22.378 18.393,21.608L19.034,20.816L132.24,20.816L132.882,21.608C133.505,22.378 133.523,23.505 133.523,61.601L133.523,100.801L132.639,101.497C131.765,102.184 131.497,102.192 110.324,102.192L88.892,102.192L88.892,115.615L98.075,115.615C106.857,115.615 107.297,115.645 108.142,116.31C109.33,117.245 109.33,118.683 108.142,119.617C107.262,120.31 107.12,120.313 75.577,120.313L43.895,120.313L43.072,119.489ZM129.161,61.42L129.161,25.346L75.637,25.346L22.114,25.346L22.114,97.494L129.161,97.494L129.161,61.42ZM149.425,119.988C149.035,119.829 148.394,119.287 147.999,118.786L147.282,117.873L147.282,70.451C147.282,37.069 147.389,22.792 147.646,22.23C147.846,21.79 148.436,21.179 148.956,20.872C149.807,20.369 151.734,20.313 168.255,20.313C184.775,20.313 186.702,20.369 187.554,20.872C188.074,21.179 188.663,21.79 188.864,22.23C189.12,22.792 189.228,37.08 189.228,70.491L189.228,117.953L188.249,119.049L187.27,120.145L168.702,120.212C158.489,120.249 149.815,120.148 149.425,119.988L149.425,119.988ZM169.612,94.321C170.065,93.868 170.436,93.285 170.436,93.024C170.436,92.18 169.076,90.783 168.255,90.783C167.433,90.783 166.074,92.18 166.074,93.024C166.074,93.667 167.594,95.145 168.255,95.145C168.548,95.145 169.159,94.774 169.612,94.321ZM170.718,85.954C171.607,84.124 170.301,82.058 168.255,82.058C165.288,82.058 164.432,86.098 167.156,87.243C168.554,87.831 170.073,87.281 170.718,85.954ZM185.872,52.36L185.872,48.836L168.255,48.836L150.637,48.836L150.637,55.883L185.872,55.883L185.872,52.36ZM185.872,38.098L185.872,34.407L168.255,34.407L150.637,34.407L150.637,41.789L185.872,41.789L185.872,38.098Z" style="fill:white;fill-rule:nonzero;stroke:white;stroke-width:1.67px;stroke-linejoin:round;stroke-miterlimit:1.41421;"/>
        </g>
    </g>
    <defs>
        <linearGradient id="_Linear1" x1="0" y1="0" x2="1" y2="0" gradientUnits="userSpaceOnUse" gradientTransform="matrix(2.16162e-16,3.5302,-3.5302,2.16162e-16,23.7183,41.1143)"><stop offset="0" style="stop-color:rgb(206,206,219);stop-opacity:1"/><stop offset="0.19" style="stop-color:white;stop-opacity:1"/><stop offset="0.48" style="stop-color:rgb(206,206,219);stop-opacity:1"/><stop offset="0.75" style="stop-color:rgb(179,179,198);stop-opacity:1"/><stop offset="0.99" style="stop-color:rgb(130,130,130);stop-opacity:1"/><stop offset="1" style="stop-color:rgb(130,130,130);stop-opacity:1"/></linearGradient>
        <linearGradient id="_Linear2" x1="0" y1="0" x2="1" y2="0" gradientUnits="userSpaceOnUse" gradientTransform="matrix(3.53118,0,0,3.53118,21.9531,37.5351)"><stop offset="0" style="stop-color:rgb(206,206,219);stop-opacity:1"/><stop offset="0.19" style="stop-color:white;stop-opacity:1"/><stop offset="0.48" style="stop-color:rgb(206,206,219);stop-opacity:1"/><stop offset="0.75" style="stop-color:rgb(179,179,198);stop-opacity:1"/><stop offset="0.99" style="stop-color:rgb(130,130,130);stop-opacity:1"/><stop offset="1" style="stop-color:rgb(130,130,130);stop-opacity:1"/></linearGradient>
        <linearGradient id="_Linear3" x1="0" y1="0" x2="1" y2="0" gradientUnits="userSpaceOnUse" gradientTransform="matrix(4.13318e-16,-6.75,6.75,4.13318e-16,23.7192,46.4414)"><stop offset="0" style="stop-color:rgb(207,0,0);stop-opacity:1"/><stop offset="0.99" style="stop-color:rgb(255,109,0);stop-opacity:1"/><stop offset="1" style="stop-color:rgb(255,109,0);stop-opacity:1"/></linearGradient>
        <linearGradient id="_Linear4" x1="0" y1="0" x2="1" y2="0" gradientUnits="userSpaceOnUse" gradientTransform="matrix(7.69244e-16,12.5627,-12.5627,7.69244e-16,23.7183,37.0664)"><stop offset="0" style="stop-color:rgb(255,240,48);stop-opacity:1"/><stop offset="0.99" style="stop-color:rgb(255,174,0);stop-opacity:1"/><stop offset="1" style="stop-color:rgb(255,174,0);stop-opacity:1"/></linearGradient>
        <linearGradient id="_Linear5" x1="0" y1="0" x2="1" y2="0" gradientUnits="userSpaceOnUse" gradientTransform="matrix(1.7221e-16,2.8124,-2.8124,1.7221e-16,23.7183,41.0039)"><stop offset="0" style="stop-color:white;stop-opacity:1"/><stop offset="0.5" style="stop-color:rgb(255,227,169);stop-opacity:1"/><stop offset="0.99" style="stop-color:rgb(255,201,87);stop-opacity:1"/><stop offset="1" style="stop-color:rgb(255,201,87);stop-opacity:1"/></linearGradient>
        <linearGradient id="_Linear6" x1="0" y1="0" x2="1" y2="0" gradientUnits="userSpaceOnUse" gradientTransform="matrix(-46.3035,-46.3035,46.3035,-46.3035,51.7329,10.1897)"><stop offset="0" style="stop-color:rgb(88,88,104);stop-opacity:1"/><stop offset="1" style="stop-color:rgb(73,73,73);stop-opacity:1"/></linearGradient>
        <linearGradient id="_Linear7" x1="0" y1="0" x2="1" y2="0" gradientUnits="userSpaceOnUse" gradientTransform="matrix(46.2977,46.2977,-46.2977,46.2977,8.3136,-33.2309)"><stop offset="0" style="stop-color:rgb(125,125,153);stop-opacity:1"/><stop offset="1" style="stop-color:rgb(73,73,73);stop-opacity:1"/></linearGradient>
        <radialGradient id="_Radial8" cx="0" cy="0" r="1" gradientUnits="userSpaceOnUse" gradientTransform="matrix(26.0789,0,0,26.0789,39.2256,28.3641)"><stop offset="0" style="stop-color:white;stop-opacity:1"/><stop offset="0.28" style="stop-color:rgb(206,206,219);stop-opacity:1"/><stop offset="0.64" style="stop-color:rgb(189,189,207);stop-opacity:1"/><stop offset="1" style="stop-color:rgb(154,154,177);stop-opacity:1"/></radialGradient>
        <linearGradient id="_Linear9" x1="0" y1="0" x2="1" y2="0" gradientUnits="userSpaceOnUse" gradientTransform="matrix(6.03647e-16,-9.8583,9.8583,6.03647e-16,23.7192,13.2217)"><stop offset="0" style="stop-color:rgb(206,206,219);stop-opacity:1"/><stop offset="1" style="stop-color:rgb(238,238,238);stop-opacity:1"/></linearGradient>
        <linearGradient id="_Linear10" x1="0" y1="0" x2="1" y2="0" gradientUnits="userSpaceOnUse" gradientTransform="matrix(7.1284,21.5493,-21.5493,7.1284,15.043,16.6919)"><stop offset="0" style="stop-color:white;stop-opacity:1"/><stop offset="1" style="stop-color:rgb(206,206,219);stop-opacity:1"/></linearGradient>
        <linearGradient id="_Linear11" x1="0" y1="0" x2="1" y2="0" gradientUnits="userSpaceOnUse" gradientTransform="matrix(1.1472,-6.719,6.719,1.1472,16.6357,35.1963)"><stop offset="0" style="stop-color:white;stop-opacity:1"/><stop offset="1" style="stop-color:rgb(189,189,207);stop-opacity:1"/></linearGradient>
        <linearGradient id="_Linear12" x1="0" y1="0" x2="1" y2="0" gradientUnits="userSpaceOnUse" gradientTransform="matrix(6.2866,0,0,6.2866,13.8062,16.3555)"><stop offset="0" style="stop-color:rgb(125,125,153);stop-opacity:1"/><stop offset="1" style="stop-color:rgb(206,206,219);stop-opacity:1"/></linearGradient>
        <linearGradient id="_Linear13" x1="0" y1="0" x2="1" y2="0" gradientUnits="userSpaceOnUse" gradientTransform="matrix(6.2866,0,0,6.2866,13.8062,18.7842)"><stop offset="0" style="stop-color:rgb(125,125,153);stop-opacity:1"/><stop offset="1" style="stop-color:rgb(206,206,219);stop-opacity:1"/></linearGradient>
        <linearGradient id="_Linear14" x1="0" y1="0" x2="1" y2="0" gradientUnits="userSpaceOnUse" gradientTransform="matrix(4.0363,4.0363,-4.0363,4.0363,14.6323,18.8965)"><stop offset="0" style="stop-color:rgb(125,125,153);stop-opacity:1"/><stop offset="1" style="stop-color:rgb(206,206,219);stop-opacity:1"/></linearGradient>
        <linearGradient id="_Linear15" x1="0" y1="0" x2="1" y2="0" gradientUnits="userSpaceOnUse" gradientTransform="matrix(8.38758e-17,-1.3698,1.3698,8.38758e-17,20.0156,34.9967)"><stop offset="0" style="stop-color:white;stop-opacity:1"/><stop offset="0.01" style="stop-color:white;stop-opacity:1"/><stop offset="1" style="stop-color:rgb(182,182,182);stop-opacity:1"/></linearGradient>
        <linearGradient id="_Linear16" x1="0" y1="0" x2="1" y2="0" gradientUnits="userSpaceOnUse" gradientTransform="matrix(7.22506e-17,-1.17994,1.17994,7.22506e-17,20.0156,34.9341)"><stop offset="0" style="stop-color:rgb(182,182,182);stop-opacity:1"/><stop offset="0.01" style="stop-color:rgb(182,182,182);stop-opacity:1"/><stop offset="0.37" style="stop-color:rgb(157,157,157);stop-opacity:1"/><stop offset="0.74" style="stop-color:rgb(137,137,137);stop-opacity:1"/><stop offset="1" style="stop-color:rgb(130,130,130);stop-opacity:1"/></linearGradient>
        <linearGradient id="_Linear17" x1="0" y1="0" x2="1" y2="0" gradientUnits="userSpaceOnUse" gradientTransform="matrix(5.62299e-17,-0.918304,0.918304,5.62299e-17,20.0168,34.6486)"><stop offset="0" style="stop-color:rgb(153,255,102);stop-opacity:1"/><stop offset="0.01" style="stop-color:rgb(153,255,102);stop-opacity:1"/><stop offset="0.24" style="stop-color:rgb(104,222,86);stop-opacity:1"/><stop offset="0.48" style="stop-color:rgb(59,193,71);stop-opacity:1"/><stop offset="0.7" style="stop-color:rgb(27,171,60);stop-opacity:1"/><stop offset="0.88" style="stop-color:rgb(7,158,53);stop-opacity:1"/><stop offset="1" style="stop-color:rgb(0,153,51);stop-opacity:1"/></linearGradient>
        <linearGradient id="_Linear18" x1="0" y1="0" x2="1" y2="0" gradientUnits="userSpaceOnUse" gradientTransform="matrix(0.0311889,-0.892448,0.892448,0.0311889,20.0043,34.5802)"><stop offset="0" style="stop-color:rgb(51,204,51);stop-opacity:1"/><stop offset="0.01" style="stop-color:rgb(51,204,51);stop-opacity:1"/><stop offset="0.36" style="stop-color:rgb(27,180,51);stop-opacity:1"/><stop offset="0.74" style="stop-color:rgb(7,160,51);stop-opacity:1"/><stop offset="1" style="stop-color:rgb(0,153,51);stop-opacity:1"/></linearGradient>
        <linearGradient id="_Linear19" x1="0" y1="0" x2="1" y2="0" gradientUnits="userSpaceOnUse" gradientTransform="matrix(3.61022e-17,0.589593,-0.589593,3.61022e-17,20.0165,33.8181)"><stop offset="0" style="stop-color:white;stop-opacity:1"/><stop offset="0.09" style="stop-color:rgb(232,247,214);stop-opacity:1"/><stop offset="0.23" style="stop-color:rgb(200,237,158);stop-opacity:1"/><stop offset="0.36" style="stop-color:rgb(173,228,109);stop-opacity:1"/><stop offset="0.5" style="stop-color:rgb(151,220,70);stop-opacity:1"/><stop offset="0.63" style="stop-color:rgb(133,214,39);stop-opacity:1"/><stop offset="0.76" style="stop-color:rgb(121,210,18);stop-opacity:1"/><stop offset="0.89" style="stop-color:rgb(114,208,4);stop-opacity:1"/><stop offset="1" style="stop-color:rgb(111,207,0);stop-opacity:1"/></linearGradient>
    </defs>
</svg>
